<mxfile host="65bd71144e">
    <diagram id="sklqcD0-BnL8TySdGc_m" name="Page-1">
        <mxGraphModel dx="1386" dy="733" grid="1" gridSize="10" guides="1" tooltips="1" connect="1" arrows="1" fold="1" page="1" pageScale="1" pageWidth="1920" pageHeight="1200" math="0" shadow="0">
            <root>
                <mxCell id="0"/>
                <mxCell id="1" style="" parent="0"/>
                <mxCell id="49" value="" style="endArrow=open;endFill=1;endSize=12;html=1;strokeColor=#666666;fontSize=12;fontColor=#275edd;dashed=1;dashPattern=8 8;entryX=-0.036;entryY=0.614;entryDx=0;entryDy=0;entryPerimeter=0;" parent="1" target="43" edge="1">
                    <mxGeometry width="160" relative="1" as="geometry">
                        <mxPoint x="435" y="412" as="sourcePoint"/>
                        <mxPoint x="435" y="582" as="targetPoint"/>
                        <Array as="points">
                            <mxPoint x="435" y="532"/>
                            <mxPoint x="435" y="625"/>
                        </Array>
                    </mxGeometry>
                </mxCell>
                <mxCell id="2" value="" style="html=1;verticalLabelPosition=bottom;align=center;labelBackgroundColor=#ffffff;verticalAlign=top;strokeWidth=5;strokeColor=#FFFFC0;shadow=0;dashed=0;shape=mxgraph.ios7.icons.user;" parent="1" vertex="1">
                    <mxGeometry x="249" y="388" width="50" height="44" as="geometry"/>
                </mxCell>
                <mxCell id="dS1X3YJwwDeshKh_qRhF-102" style="edgeStyle=orthogonalEdgeStyle;html=1;dashed=1;dashPattern=8 8;strokeColor=#5E5E5E;fontSize=15;fontColor=#FF6666;" parent="1" source="7" edge="1">
                    <mxGeometry relative="1" as="geometry">
                        <mxPoint x="275" y="438" as="targetPoint"/>
                    </mxGeometry>
                </mxCell>
                <mxCell id="7" value="PU Student&lt;br&gt;" style="text;html=1;strokeColor=none;fillColor=none;align=center;verticalAlign=middle;whiteSpace=wrap;rounded=0;strokeWidth=5;fontSize=14;" parent="1" vertex="1">
                    <mxGeometry x="245" y="558" width="60" height="30" as="geometry"/>
                </mxCell>
                <mxCell id="8" value="" style="shape=mxgraph.signs.healthcare.registration;html=1;pointerEvents=1;fillColor=none;strokeColor=#2D7600;verticalLabelPosition=bottom;verticalAlign=top;align=center;strokeWidth=5;fontSize=14;fontColor=#ffffff;" parent="1" vertex="1">
                    <mxGeometry x="505" y="352" width="150" height="153" as="geometry"/>
                </mxCell>
                <mxCell id="11" value="Register" style="html=1;verticalAlign=bottom;startArrow=circle;startFill=1;endArrow=open;startSize=6;endSize=8;fontSize=14;entryX=0;entryY=0.392;entryDx=0;entryDy=0;entryPerimeter=0;exitX=0.992;exitY=0.476;exitDx=0;exitDy=0;exitPerimeter=0;" parent="1" source="2" target="8" edge="1">
                    <mxGeometry width="80" relative="1" as="geometry">
                        <mxPoint x="368" y="412" as="sourcePoint"/>
                        <mxPoint x="448" y="412" as="targetPoint"/>
                        <Array as="points">
                            <mxPoint x="435" y="412"/>
                        </Array>
                    </mxGeometry>
                </mxCell>
                <mxCell id="dS1X3YJwwDeshKh_qRhF-88" style="edgeStyle=orthogonalEdgeStyle;html=1;dashed=1;dashPattern=8 8;strokeColor=#5E5E5E;fontSize=15;fontColor=#FF6666;" parent="1" source="15" target="17" edge="1">
                    <mxGeometry relative="1" as="geometry"/>
                </mxCell>
                <mxCell id="15" value="&lt;span style=&quot;box-sizing: border-box; color: rgb(31, 111, 235); font-weight: 700; font-family: SFMono-Regular, Menlo, Monaco, Consolas, &amp;quot;Liberation Mono&amp;quot;, &amp;quot;Courier New&amp;quot;, monospace; text-align: left;&quot; class=&quot;hljs-section&quot;&gt;&lt;br&gt;+------------------------+&lt;/span&gt;&lt;span style=&quot;color: rgb(201, 209, 217); font-family: SFMono-Regular, Menlo, Monaco, Consolas, &amp;quot;Liberation Mono&amp;quot;, &amp;quot;Courier New&amp;quot;, monospace; text-align: left; background-color: rgb(33, 34, 36);&quot;&gt;&lt;br&gt;&lt;/span&gt;&lt;span style=&quot;box-sizing: border-box; font-weight: 700; font-family: SFMono-Regular, Menlo, Monaco, Consolas, &amp;quot;Liberation Mono&amp;quot;, &amp;quot;Courier New&amp;quot;, monospace; text-align: left;&quot; class=&quot;hljs-section&quot;&gt;&lt;font color=&quot;#1f6feb&quot;&gt;|   Validate Information |&lt;br&gt;+------------------------+&lt;/font&gt;&lt;/span&gt;&lt;span style=&quot;color: rgb(201, 209, 217); font-family: SFMono-Regular, Menlo, Monaco, Consolas, &amp;quot;Liberation Mono&amp;quot;, &amp;quot;Courier New&amp;quot;, monospace; text-align: left; background-color: rgb(33, 34, 36);&quot;&gt;&lt;br&gt;&lt;/span&gt;&lt;span style=&quot;box-sizing: border-box; color: rgb(139, 148, 158); font-family: SFMono-Regular, Menlo, Monaco, Consolas, &amp;quot;Liberation Mono&amp;quot;, &amp;quot;Courier New&amp;quot;, monospace; text-align: left;&quot; class=&quot;hljs-code&quot;&gt;          |&lt;/span&gt;" style="rounded=1;whiteSpace=wrap;html=1;arcSize=40;fontColor=#000000;fillColor=#ffffc0;strokeColor=#FFFFFF;strokeWidth=5;fontSize=14;" parent="1" vertex="1">
                    <mxGeometry x="754" y="372" width="240" height="66" as="geometry"/>
                </mxCell>
                <mxCell id="17" value="Condition" style="rhombus;whiteSpace=wrap;html=1;fillColor=#ffffc0;strokeColor=#00994D;strokeWidth=5;fontSize=14;" parent="1" vertex="1">
                    <mxGeometry x="814" y="477" width="80" height="40" as="geometry"/>
                </mxCell>
                <mxCell id="18" value="&lt;font color=&quot;#ff6666&quot;&gt;no ?&lt;/font&gt;" style="edgeStyle=orthogonalEdgeStyle;html=1;align=left;verticalAlign=bottom;endArrow=open;endSize=8;strokeColor=#5E5E5E;fontSize=14;fillColor=#a20025;dashed=1;dashPattern=8 8;" parent="1" source="17" edge="1">
                    <mxGeometry x="-1" relative="1" as="geometry">
                        <mxPoint x="705" y="388" as="targetPoint"/>
                        <Array as="points">
                            <mxPoint x="1165" y="497"/>
                            <mxPoint x="1165" y="328"/>
                            <mxPoint x="705" y="328"/>
                        </Array>
                    </mxGeometry>
                </mxCell>
                <mxCell id="19" value="&lt;font color=&quot;#99ff99&quot;&gt;yes ?&lt;br&gt;&lt;/font&gt;" style="edgeStyle=orthogonalEdgeStyle;html=1;align=left;verticalAlign=top;endArrow=open;endSize=8;strokeColor=#5E5E5E;fontSize=14;dashed=1;dashPattern=8 8;" parent="1" source="17" target="38" edge="1">
                    <mxGeometry x="-1" relative="1" as="geometry">
                        <mxPoint x="854" y="577" as="targetPoint"/>
                    </mxGeometry>
                </mxCell>
                <mxCell id="21" value="Login" style="html=1;verticalAlign=bottom;startArrow=circle;startFill=1;endArrow=open;startSize=6;endSize=8;fontSize=14;" parent="1" edge="1">
                    <mxGeometry width="80" relative="1" as="geometry">
                        <mxPoint x="660" y="409.5" as="sourcePoint"/>
                        <mxPoint x="750" y="410" as="targetPoint"/>
                    </mxGeometry>
                </mxCell>
                <mxCell id="22" value="&lt;span style=&quot;font-size: 14px;&quot;&gt;PENTECOST UNIVERSITY&lt;/span&gt;&lt;br style=&quot;font-size: 14px;&quot;&gt;&lt;span style=&quot;font-size: 14px;&quot;&gt;SCHOOL SELECTION SYSTEM&lt;/span&gt;" style="text;strokeColor=none;fillColor=none;html=1;fontSize=24;fontStyle=1;verticalAlign=middle;align=center;dashed=1;strokeWidth=5;" parent="1" vertex="1">
                    <mxGeometry x="810" y="180" width="290" height="80" as="geometry"/>
                </mxCell>
                <mxCell id="dS1X3YJwwDeshKh_qRhF-64" style="edgeStyle=orthogonalEdgeStyle;html=1;dashed=1;dashPattern=8 8;strokeColor=#5E5E5E;fontSize=18;fontColor=#FFFFFF;" parent="1" source="38" edge="1">
                    <mxGeometry relative="1" as="geometry">
                        <mxPoint x="1003.294117647059" y="848" as="targetPoint"/>
                    </mxGeometry>
                </mxCell>
                <mxCell id="38" value="&lt;span style=&quot;box-sizing: border-box; color: rgb(31, 111, 235); font-weight: 700; font-family: SFMono-Regular, Menlo, Monaco, Consolas, &amp;quot;Liberation Mono&amp;quot;, &amp;quot;Courier New&amp;quot;, monospace; text-align: left;&quot; class=&quot;hljs-section&quot;&gt;&lt;b style=&quot;color: rgb(0, 0, 0);&quot;&gt;&lt;font color=&quot;#007fff&quot;&gt;| School System Dashboard |&lt;br&gt;&lt;/font&gt;&lt;/b&gt;+------------------------+&lt;/span&gt;&lt;span style=&quot;font-family: SFMono-Regular, Menlo, Monaco, Consolas, &amp;quot;Liberation Mono&amp;quot;, &amp;quot;Courier New&amp;quot;, monospace; text-align: left;&quot;&gt;&lt;br&gt;&lt;/span&gt;&lt;span style=&quot;box-sizing: border-box; color: rgb(31, 111, 235); font-weight: 700; font-family: SFMono-Regular, Menlo, Monaco, Consolas, &amp;quot;Liberation Mono&amp;quot;, &amp;quot;Courier New&amp;quot;, monospace; text-align: left;&quot; class=&quot;hljs-section&quot;&gt;| Auto Slot Allocation      |&lt;br&gt;+------------------------+&lt;/span&gt;" style="rounded=1;whiteSpace=wrap;html=1;arcSize=40;fontColor=#000000;fillColor=#FFFFC0;strokeColor=#ff0000;strokeWidth=1;fontSize=14;movable=1;resizable=1;rotatable=1;deletable=1;editable=1;connectable=1;" parent="1" vertex="1">
                    <mxGeometry x="855" y="622" width="296.5" height="170" as="geometry"/>
                </mxCell>
                <mxCell id="52" style="edgeStyle=orthogonalEdgeStyle;html=1;dashed=1;dashPattern=8 8;strokeColor=#5E5E5E;fontSize=12;fontColor=#275edd;" parent="1" source="43" edge="1">
                    <mxGeometry relative="1" as="geometry">
                        <mxPoint x="705" y="412" as="targetPoint"/>
                    </mxGeometry>
                </mxCell>
                <mxCell id="43" value="&lt;font color=&quot;#275edd&quot;&gt;+--------------------+&lt;br&gt;&lt;font style=&quot;font-family: SFMono-Regular, Menlo, Monaco, Consolas, &amp;quot;Liberation Mono&amp;quot;, &amp;quot;Courier New&amp;quot;, monospace; font-weight: 700; text-align: left; font-size: 12px;&quot;&gt;Confirm&lt;br&gt;&amp;nbsp; Registration&lt;/font&gt;&lt;span style=&quot;font-family: SFMono-Regular, Menlo, Monaco, Consolas, &amp;quot;Liberation Mono&amp;quot;, &amp;quot;Courier New&amp;quot;, monospace; font-weight: 700; text-align: left; font-size: 10px;&quot;&gt;&amp;nbsp;&lt;/span&gt;&lt;br&gt;+--------------------+&lt;/font&gt;" style="rounded=1;whiteSpace=wrap;html=1;arcSize=40;fontColor=#000000;fillColor=#ffffc0;strokeColor=#FFFFFF;strokeWidth=5;fontSize=14;" parent="1" vertex="1">
                    <mxGeometry x="515" y="582" width="140" height="70" as="geometry"/>
                </mxCell>
                <mxCell id="dS1X3YJwwDeshKh_qRhF-74" style="edgeStyle=orthogonalEdgeStyle;html=1;dashed=1;dashPattern=8 8;strokeColor=#5E5E5E;fontSize=18;fontColor=#FFFFC0;" parent="1" source="dS1X3YJwwDeshKh_qRhF-65" edge="1">
                    <mxGeometry relative="1" as="geometry">
                        <mxPoint x="735" y="898" as="targetPoint"/>
                    </mxGeometry>
                </mxCell>
                <mxCell id="dS1X3YJwwDeshKh_qRhF-65" value="&lt;span style=&quot;color: rgb(31, 111, 235); font-family: SFMono-Regular, Menlo, Monaco, Consolas, &amp;quot;Liberation Mono&amp;quot;, &amp;quot;Courier New&amp;quot;, monospace; font-size: 14px; font-weight: 700; text-align: left;&quot;&gt;+------------------------+&lt;/span&gt;&lt;span style=&quot;font-size: 14px; background-color: rgb(42, 37, 47); font-family: SFMono-Regular, Menlo, Monaco, Consolas, &amp;quot;Liberation Mono&amp;quot;, &amp;quot;Courier New&amp;quot;, monospace; text-align: left;&quot;&gt;&lt;span style=&quot;background-color: rgb(255, 255, 192);&quot;&gt;&lt;b&gt;&lt;font color=&quot;#007fff&quot;&gt;| Check University |&lt;br&gt;&lt;/font&gt;&lt;/b&gt;&lt;/span&gt;&lt;/span&gt;&lt;span style=&quot;font-size: 14px; box-sizing: border-box; color: rgb(31, 111, 235); font-weight: 700; font-family: SFMono-Regular, Menlo, Monaco, Consolas, &amp;quot;Liberation Mono&amp;quot;, &amp;quot;Courier New&amp;quot;, monospace; text-align: left;&quot; class=&quot;hljs-section&quot;&gt;&lt;span style=&quot;background-color: rgb(255, 255, 192);&quot;&gt;|Availability|&lt;br&gt;+------------------------+&lt;/span&gt;&lt;/span&gt;" style="rounded=1;whiteSpace=wrap;html=1;arcSize=40;fontColor=#000000;fillColor=#ffffc0;strokeColor=#ff0000;labelBackgroundColor=#FFFFC0;strokeWidth=1;fontSize=18;" parent="1" vertex="1">
                    <mxGeometry x="879.87" y="858" width="246.75" height="80" as="geometry"/>
                </mxCell>
                <mxCell id="dS1X3YJwwDeshKh_qRhF-77" style="edgeStyle=orthogonalEdgeStyle;html=1;dashed=1;dashPattern=8 8;strokeColor=#5E5E5E;fontSize=18;fontColor=#FFFFC0;" parent="1" source="dS1X3YJwwDeshKh_qRhF-65" edge="1">
                    <mxGeometry relative="1" as="geometry">
                        <mxPoint x="1335" y="718" as="targetPoint"/>
                        <Array as="points">
                            <mxPoint x="1295" y="898"/>
                            <mxPoint x="1295" y="718"/>
                        </Array>
                    </mxGeometry>
                </mxCell>
                <mxCell id="dS1X3YJwwDeshKh_qRhF-66" value="" style="edgeStyle=orthogonalEdgeStyle;html=1;verticalAlign=bottom;endArrow=open;endSize=8;strokeColor=#ff0000;dashed=1;dashPattern=8 8;fontSize=18;fontColor=#FFFFFF;" parent="1" source="dS1X3YJwwDeshKh_qRhF-65" edge="1">
                    <mxGeometry relative="1" as="geometry">
                        <mxPoint x="1003.25" y="948" as="targetPoint"/>
                    </mxGeometry>
                </mxCell>
                <mxCell id="dS1X3YJwwDeshKh_qRhF-79" value="&lt;font color=&quot;#ff6666&quot; style=&quot;font-size: 15px; font-weight: normal;&quot;&gt;no ?&lt;/font&gt;" style="text;strokeColor=none;fillColor=none;html=1;fontSize=24;fontStyle=1;verticalAlign=middle;align=center;labelBackgroundColor=none;strokeWidth=1;fontColor=#fafaeb;" parent="1" vertex="1">
                    <mxGeometry x="755" y="858" width="100" height="40" as="geometry"/>
                </mxCell>
                <mxCell id="dS1X3YJwwDeshKh_qRhF-82" style="edgeStyle=orthogonalEdgeStyle;html=1;dashed=1;dashPattern=8 8;strokeColor=#5E5E5E;fontSize=15;fontColor=#FF6666;" parent="1" edge="1">
                    <mxGeometry relative="1" as="geometry">
                        <mxPoint x="851" y="738" as="targetPoint"/>
                        <mxPoint x="591" y="893.0588235294117" as="sourcePoint"/>
                        <Array as="points">
                            <mxPoint x="535" y="893"/>
                            <mxPoint x="535" y="738"/>
                        </Array>
                    </mxGeometry>
                </mxCell>
                <mxCell id="dS1X3YJwwDeshKh_qRhF-80" value="&lt;font color=&quot;#275edd&quot;&gt;+--------------------+&lt;br&gt;&lt;font style=&quot;font-family: SFMono-Regular, Menlo, Monaco, Consolas, &amp;quot;Liberation Mono&amp;quot;, &amp;quot;Courier New&amp;quot;, monospace; font-weight: 700; text-align: left; font-size: 12px;&quot;&gt;Choose&lt;br&gt;&amp;nbsp; University&lt;/font&gt;&lt;span style=&quot;font-family: SFMono-Regular, Menlo, Monaco, Consolas, &amp;quot;Liberation Mono&amp;quot;, &amp;quot;Courier New&amp;quot;, monospace; font-weight: 700; text-align: left; font-size: 10px;&quot;&gt;&amp;nbsp;&lt;/span&gt;&lt;br&gt;+--------------------+&lt;/font&gt;" style="rounded=1;whiteSpace=wrap;html=1;arcSize=40;fontColor=#000000;fillColor=#ffffc0;strokeColor=#FFFFFF;strokeWidth=5;fontSize=14;" parent="1" vertex="1">
                    <mxGeometry x="585" y="858" width="140" height="70" as="geometry"/>
                </mxCell>
                <mxCell id="dS1X3YJwwDeshKh_qRhF-81" value="&lt;font color=&quot;#99ff99&quot; style=&quot;font-size: 15px; font-weight: normal;&quot;&gt;Yes ?&lt;/font&gt;" style="text;strokeColor=none;fillColor=none;html=1;fontSize=24;fontStyle=1;verticalAlign=middle;align=center;labelBackgroundColor=none;strokeWidth=1;fontColor=#fafaeb;" parent="1" vertex="1">
                    <mxGeometry x="1164" y="848" width="100" height="40" as="geometry"/>
                </mxCell>
                <mxCell id="dS1X3YJwwDeshKh_qRhF-86" value="" style="sketch=0;pointerEvents=1;shadow=0;dashed=0;html=1;strokeColor=none;labelPosition=center;verticalLabelPosition=bottom;verticalAlign=top;align=center;fillColor=#F54749;shape=mxgraph.mscae.intune.dashboard;labelBackgroundColor=none;strokeWidth=1;fontSize=15;fontColor=#FF6666;" parent="1" vertex="1">
                    <mxGeometry x="979" y="628" width="50" height="40" as="geometry"/>
                </mxCell>
                <mxCell id="dS1X3YJwwDeshKh_qRhF-87" value="" style="verticalLabelPosition=bottom;html=1;verticalAlign=top;align=center;strokeColor=none;fillColor=#333333;shape=mxgraph.azure.automation;pointerEvents=1;labelBackgroundColor=none;strokeWidth=1;fontSize=15;fontColor=#FF6666;" parent="1" vertex="1">
                    <mxGeometry x="971" y="738" width="50" height="45" as="geometry"/>
                </mxCell>
                <mxCell id="dS1X3YJwwDeshKh_qRhF-89" value="" style="sketch=0;points=[[0,0,0],[0.25,0,0],[0.5,0,0],[0.75,0,0],[1,0,0],[0,1,0],[0.25,1,0],[0.5,1,0],[0.75,1,0],[1,1,0],[0,0.25,0],[0,0.5,0],[0,0.75,0],[1,0.25,0],[1,0.5,0],[1,0.75,0]];outlineConnect=0;fontColor=#232F3E;gradientColor=#F54749;gradientDirection=north;fillColor=#C7131F;strokeColor=#ffffff;dashed=0;verticalLabelPosition=bottom;verticalAlign=top;align=center;html=1;fontSize=12;fontStyle=0;aspect=fixed;shape=mxgraph.aws4.resourceIcon;resIcon=mxgraph.aws4.key_management_service;labelBackgroundColor=none;strokeWidth=1;" parent="1" vertex="1">
                    <mxGeometry x="966" y="366" width="78" height="78" as="geometry"/>
                </mxCell>
                <mxCell id="dS1X3YJwwDeshKh_qRhF-97" value="" style="edgeStyle=orthogonalEdgeStyle;html=1;dashed=1;dashPattern=8 8;strokeColor=#5E5E5E;fontSize=15;fontColor=#FF6666;" parent="1" source="dS1X3YJwwDeshKh_qRhF-91" target="dS1X3YJwwDeshKh_qRhF-96" edge="1">
                    <mxGeometry relative="1" as="geometry"/>
                </mxCell>
                <mxCell id="dS1X3YJwwDeshKh_qRhF-100" style="edgeStyle=orthogonalEdgeStyle;html=1;dashed=1;dashPattern=8 8;strokeColor=#5E5E5E;fontSize=15;fontColor=#FF6666;entryX=0.963;entryY=0.172;entryDx=0;entryDy=0;entryPerimeter=0;" parent="1" target="38" edge="1">
                    <mxGeometry relative="1" as="geometry">
                        <mxPoint x="1185" y="628" as="targetPoint"/>
                        <mxPoint x="1435" y="668" as="sourcePoint"/>
                        <Array as="points">
                            <mxPoint x="1435" y="618"/>
                            <mxPoint x="1185" y="618"/>
                            <mxPoint x="1185" y="651"/>
                        </Array>
                    </mxGeometry>
                </mxCell>
                <mxCell id="dS1X3YJwwDeshKh_qRhF-91" value="&lt;span style=&quot;color: rgb(31, 111, 235); font-family: SFMono-Regular, Menlo, Monaco, Consolas, &amp;quot;Liberation Mono&amp;quot;, &amp;quot;Courier New&amp;quot;, monospace; font-size: 14px; font-weight: 700; text-align: left;&quot;&gt;+------------------------+&lt;/span&gt;&lt;span style=&quot;font-size: 14px; background-color: rgb(42, 37, 47); font-family: SFMono-Regular, Menlo, Monaco, Consolas, &amp;quot;Liberation Mono&amp;quot;, &amp;quot;Courier New&amp;quot;, monospace; text-align: left;&quot;&gt;&lt;span style=&quot;background-color: rgb(255, 255, 192);&quot;&gt;&lt;b&gt;&lt;font color=&quot;#007fff&quot;&gt;| Check University |&lt;br&gt;&lt;/font&gt;&lt;/b&gt;&lt;/span&gt;&lt;/span&gt;&lt;span style=&quot;font-size: 14px; box-sizing: border-box; color: rgb(31, 111, 235); font-weight: 700; font-family: SFMono-Regular, Menlo, Monaco, Consolas, &amp;quot;Liberation Mono&amp;quot;, &amp;quot;Courier New&amp;quot;, monospace; text-align: left;&quot; class=&quot;hljs-section&quot;&gt;&lt;span style=&quot;background-color: rgb(255, 255, 192);&quot;&gt;|Eligibility|&lt;br&gt;+------------------------+&lt;/span&gt;&lt;/span&gt;" style="rounded=1;whiteSpace=wrap;html=1;arcSize=40;fontColor=#000000;fillColor=#ffffc0;strokeColor=#ff0000;labelBackgroundColor=#FFFFC0;strokeWidth=1;fontSize=18;" parent="1" vertex="1">
                    <mxGeometry x="1335" y="678" width="246.75" height="80" as="geometry"/>
                </mxCell>
                <mxCell id="dS1X3YJwwDeshKh_qRhF-107" style="edgeStyle=orthogonalEdgeStyle;html=1;dashed=1;dashPattern=8 8;strokeColor=#5E5E5E;fontSize=15;fontColor=#FF6666;" parent="1" source="dS1X3YJwwDeshKh_qRhF-96" edge="1">
                    <mxGeometry relative="1" as="geometry">
                        <mxPoint x="1475" y="310" as="targetPoint"/>
                    </mxGeometry>
                </mxCell>
                <mxCell id="dS1X3YJwwDeshKh_qRhF-96" value="&lt;span style=&quot;color: rgb(31, 111, 235); font-family: SFMono-Regular, Menlo, Monaco, Consolas, &amp;quot;Liberation Mono&amp;quot;, &amp;quot;Courier New&amp;quot;, monospace; font-size: 14px; font-weight: 700; text-align: left;&quot;&gt;+------------------------+&lt;/span&gt;&lt;span style=&quot;font-size: 14px; background-color: rgb(42, 37, 47); font-family: SFMono-Regular, Menlo, Monaco, Consolas, &amp;quot;Liberation Mono&amp;quot;, &amp;quot;Courier New&amp;quot;, monospace; text-align: left;&quot;&gt;&lt;span style=&quot;background-color: rgb(255, 255, 192);&quot;&gt;&lt;b&gt;&lt;font color=&quot;#007fff&quot;&gt;| Allocate Slot |&lt;br&gt;&lt;/font&gt;&lt;/b&gt;&lt;/span&gt;&lt;/span&gt;" style="whiteSpace=wrap;html=1;fontSize=18;fillColor=#ffffc0;strokeColor=#ff0000;fontColor=#000000;rounded=1;arcSize=40;labelBackgroundColor=#FFFFC0;strokeWidth=1;" parent="1" vertex="1">
                    <mxGeometry x="1345" y="458" width="259.99" height="90" as="geometry"/>
                </mxCell>
                <mxCell id="dS1X3YJwwDeshKh_qRhF-98" value="&lt;font color=&quot;#99ff99&quot; style=&quot;font-size: 15px; font-weight: normal;&quot;&gt;Yes ?&lt;/font&gt;" style="text;strokeColor=none;fillColor=none;html=1;fontSize=24;fontStyle=1;verticalAlign=middle;align=center;labelBackgroundColor=none;strokeWidth=1;fontColor=#fafaeb;" parent="1" vertex="1">
                    <mxGeometry x="1475" y="553" width="56.75" height="40" as="geometry"/>
                </mxCell>
                <mxCell id="dS1X3YJwwDeshKh_qRhF-101" value="&lt;font color=&quot;#ff6666&quot; style=&quot;font-size: 15px; font-weight: normal;&quot;&gt;no ?&lt;/font&gt;" style="text;strokeColor=none;fillColor=none;html=1;fontSize=24;fontStyle=1;verticalAlign=middle;align=center;labelBackgroundColor=none;strokeWidth=1;fontColor=#fafaeb;" parent="1" vertex="1">
                    <mxGeometry x="1255" y="612" width="100" height="40" as="geometry"/>
                </mxCell>
                <mxCell id="dS1X3YJwwDeshKh_qRhF-103" value="University Name" style="swimlane;fontStyle=1;childLayout=stackLayout;horizontal=1;startSize=26;fillColor=#FFFFC0;horizontalStack=0;resizeParent=1;resizeParentMax=0;resizeLast=0;collapsible=1;marginBottom=0;labelBackgroundColor=none;strokeColor=#FFFFC0;strokeWidth=1;fontSize=15;fontColor=#007FFF;" parent="1" vertex="1">
                    <mxGeometry x="1290" y="200" width="325" height="104" as="geometry"/>
                </mxCell>
                <mxCell id="dS1X3YJwwDeshKh_qRhF-104" value="Student Name" style="text;strokeColor=none;fillColor=#FFFFC0;align=left;verticalAlign=top;spacingLeft=4;spacingRight=4;overflow=hidden;rotatable=0;points=[[0,0.5],[1,0.5]];portConstraint=eastwest;labelBackgroundColor=none;strokeWidth=1;fontSize=15;fontColor=#007FFF;fontStyle=1" parent="dS1X3YJwwDeshKh_qRhF-103" vertex="1">
                    <mxGeometry y="26" width="325" height="26" as="geometry"/>
                </mxCell>
                <mxCell id="dS1X3YJwwDeshKh_qRhF-105" value="Room Number" style="text;strokeColor=none;fillColor=#FFFFC0;align=left;verticalAlign=top;spacingLeft=4;spacingRight=4;overflow=hidden;rotatable=0;points=[[0,0.5],[1,0.5]];portConstraint=eastwest;labelBackgroundColor=none;strokeWidth=1;fontSize=15;fontColor=#007FFF;fontStyle=1" parent="dS1X3YJwwDeshKh_qRhF-103" vertex="1">
                    <mxGeometry y="52" width="325" height="26" as="geometry"/>
                </mxCell>
                <mxCell id="dS1X3YJwwDeshKh_qRhF-106" value="Allocated Fees for the Year" style="text;strokeColor=none;fillColor=#FFFFC0;align=left;verticalAlign=top;spacingLeft=4;spacingRight=4;overflow=hidden;rotatable=0;points=[[0,0.5],[1,0.5]];portConstraint=eastwest;labelBackgroundColor=none;strokeWidth=1;fontSize=15;fontColor=#007FFF;fontStyle=1" parent="dS1X3YJwwDeshKh_qRhF-103" vertex="1">
                    <mxGeometry y="78" width="325" height="26" as="geometry"/>
                </mxCell>
                <mxCell id="54" value="" style="rounded=0;whiteSpace=wrap;html=1;strokeColor=default;fillColor=none;" parent="1" vertex="1">
                    <mxGeometry x="220" y="150" width="1490" height="810" as="geometry"/>
                </mxCell>
            </root>
        </mxGraphModel>
    </diagram>
    <diagram id="nlHrhqEZXHElEwFSsJ6O" name="Page-2">
        <mxGraphModel dx="1081" dy="733" grid="1" gridSize="10" guides="1" tooltips="1" connect="1" arrows="1" fold="1" page="1" pageScale="1" pageWidth="1920" pageHeight="1200" math="0" shadow="0">
            <root>
                <mxCell id="0"/>
                <mxCell id="1" parent="0"/>
                <mxCell id="2LE40x0W0pQmanTA2nhJ-12" value="Class SCHOOL_SYSTEM" style="swimlane;whiteSpace=wrap;html=1;labelBackgroundColor=none;strokeColor=#005700;strokeWidth=1;fontSize=15;fontColor=#ffffff;fillColor=#008a00;align=left;movable=1;resizable=1;rotatable=1;deletable=1;editable=1;connectable=1;" parent="1" vertex="1">
                    <mxGeometry x="80" y="110" width="460" height="170" as="geometry"/>
                </mxCell>
                <mxCell id="2LE40x0W0pQmanTA2nhJ-14" value="&lt;span style=&quot;box-sizing: border-box; font-family: SFMono-Regular, Menlo, Monaco, Consolas, &amp;quot;Liberation Mono&amp;quot;, &amp;quot;Courier New&amp;quot;, monospace; font-size: 14px;&quot; class=&quot;hljs-code&quot;&gt;+-------------------------------------+&lt;/span&gt;&lt;span style=&quot;font-family: SFMono-Regular, Menlo, Monaco, Consolas, &amp;quot;Liberation Mono&amp;quot;, &amp;quot;Courier New&amp;quot;, monospace; font-size: 14px;&quot;&gt;&lt;br&gt;&lt;/span&gt;&lt;span style=&quot;font-family: SFMono-Regular, Menlo, Monaco, Consolas, &amp;quot;Liberation Mono&amp;quot;, &amp;quot;Courier New&amp;quot;, monospace; font-size: 14px;&quot;&gt;| - universities: University[]         |&lt;br&gt;&lt;/span&gt;&lt;span style=&quot;box-sizing: border-box; font-family: SFMono-Regular, Menlo, Monaco, Consolas, &amp;quot;Liberation Mono&amp;quot;, &amp;quot;Courier New&amp;quot;, monospace; font-size: 14px;&quot; class=&quot;hljs-code&quot;&gt;+-------------------------------------+&lt;/span&gt;&lt;span style=&quot;font-family: SFMono-Regular, Menlo, Monaco, Consolas, &amp;quot;Liberation Mono&amp;quot;, &amp;quot;Courier New&amp;quot;, monospace; font-size: 14px;&quot;&gt;&lt;br&gt;| + addUniversity(university: University): void |&lt;br&gt;| + removeUniversity(university: University): void |&lt;br&gt;&lt;/span&gt;&lt;span style=&quot;box-sizing: border-box; font-family: SFMono-Regular, Menlo, Monaco, Consolas, &amp;quot;Liberation Mono&amp;quot;, &amp;quot;Courier New&amp;quot;, monospace; font-size: 14px;&quot; class=&quot;hljs-section&quot;&gt;&lt;font color=&quot;#1f6feb&quot;&gt;&lt;b&gt;| + allocateSlot(student: Student): void |&lt;br&gt;+-------------------------------------+&lt;/b&gt;&lt;/font&gt;&lt;/span&gt;" style="text;html=1;align=left;verticalAlign=middle;resizable=1;points=[];autosize=1;strokeColor=none;fillColor=none;fontSize=15;fontColor=#FFFFFF;movable=1;rotatable=1;deletable=1;editable=1;connectable=1;" parent="2LE40x0W0pQmanTA2nhJ-12" vertex="1">
                    <mxGeometry y="10" width="460" height="150" as="geometry"/>
                </mxCell>
                <mxCell id="2LE40x0W0pQmanTA2nhJ-17" value="&lt;span style=&quot;border-color: rgb(0, 0, 0); font-style: normal; font-variant-ligatures: normal; font-variant-caps: normal; font-weight: 700; letter-spacing: normal; orphans: 2; text-align: left; text-indent: 0px; text-transform: none; widows: 2; word-spacing: 0px; -webkit-text-stroke-width: 0px; text-decoration-thickness: initial; text-decoration-style: initial; text-decoration-color: initial; box-sizing: border-box; color: rgb(31, 111, 235); font-family: SFMono-Regular, Menlo, Monaco, Consolas, &amp;quot;Liberation Mono&amp;quot;, &amp;quot;Courier New&amp;quot;, monospace; font-size: 14px;&quot; class=&quot;hljs-section&quot;&gt;+-------------------------------------+&lt;/span&gt;&lt;span style=&quot;border-color: rgb(0, 0, 0); font-style: normal; font-variant-ligatures: normal; font-variant-caps: normal; letter-spacing: normal; orphans: 2; text-align: left; text-indent: 0px; text-transform: none; widows: 2; word-spacing: 0px; -webkit-text-stroke-width: 0px; text-decoration-thickness: initial; text-decoration-style: initial; text-decoration-color: initial; color: rgb(201, 209, 217); font-family: SFMono-Regular, Menlo, Monaco, Consolas, &amp;quot;Liberation Mono&amp;quot;, &amp;quot;Courier New&amp;quot;, monospace; font-size: 14px; font-weight: 400; float: none; display: inline !important;&quot;&gt;&lt;br style=&quot;border-color: rgb(0, 0, 0);&quot;&gt;| - name: String |&lt;br style=&quot;border-color: rgb(0, 0, 0);&quot;&gt;| - grade: char |&lt;br style=&quot;border-color: rgb(0, 0, 0);&quot;&gt;| - capacity: int |&lt;br style=&quot;border-color: rgb(0, 0, 0);&quot;&gt;| - slotsFilled: int |&lt;br style=&quot;border-color: rgb(0, 0, 0);&quot;&gt;| - students: Student[] |&lt;br style=&quot;border-color: rgb(0, 0, 0);&quot;&gt;&lt;/span&gt;&lt;span style=&quot;border-color: rgb(0, 0, 0); font-style: normal; font-variant-ligatures: normal; font-variant-caps: normal; letter-spacing: normal; orphans: 2; text-align: left; text-indent: 0px; text-transform: none; widows: 2; word-spacing: 0px; -webkit-text-stroke-width: 0px; text-decoration-thickness: initial; text-decoration-style: initial; text-decoration-color: initial; box-sizing: border-box; color: rgb(139, 148, 158); font-family: SFMono-Regular, Menlo, Monaco, Consolas, &amp;quot;Liberation Mono&amp;quot;, &amp;quot;Courier New&amp;quot;, monospace; font-size: 14px; font-weight: 400;&quot; class=&quot;hljs-code&quot;&gt;+-------------------------------------+&lt;/span&gt;&lt;span style=&quot;border-color: rgb(0, 0, 0); font-style: normal; font-variant-ligatures: normal; font-variant-caps: normal; letter-spacing: normal; orphans: 2; text-align: left; text-indent: 0px; text-transform: none; widows: 2; word-spacing: 0px; -webkit-text-stroke-width: 0px; text-decoration-thickness: initial; text-decoration-style: initial; text-decoration-color: initial; color: rgb(201, 209, 217); font-family: SFMono-Regular, Menlo, Monaco, Consolas, &amp;quot;Liberation Mono&amp;quot;, &amp;quot;Courier New&amp;quot;, monospace; font-size: 14px; font-weight: 400; float: none; display: inline !important;&quot;&gt;&lt;br style=&quot;border-color: rgb(0, 0, 0);&quot;&gt;| + University(name: String, grade: char, capacity: int) |&lt;br style=&quot;border-color: rgb(0, 0, 0);&quot;&gt;| + getName(): String |&lt;br style=&quot;border-color: rgb(0, 0, 0);&quot;&gt;| + getGrade(): char |&lt;br style=&quot;border-color: rgb(0, 0, 0);&quot;&gt;| + getCapacity(): int |&lt;br style=&quot;border-color: rgb(0, 0, 0);&quot;&gt;| + getSlotsFilled(): int |&lt;br style=&quot;border-color: rgb(0, 0, 0);&quot;&gt;| + addStudent(student: Student): void |&lt;br style=&quot;border-color: rgb(0, 0, 0);&quot;&gt;| + removeStudent(student: Student): void |&lt;br style=&quot;border-color: rgb(0, 0, 0);&quot;&gt;&lt;/span&gt;&lt;span style=&quot;border-color: rgb(0, 0, 0); font-style: normal; font-variant-ligatures: normal; font-variant-caps: normal; font-weight: 700; letter-spacing: normal; orphans: 2; text-align: left; text-indent: 0px; text-transform: none; widows: 2; word-spacing: 0px; -webkit-text-stroke-width: 0px; text-decoration-thickness: initial; text-decoration-style: initial; text-decoration-color: initial; box-sizing: border-box; font-family: SFMono-Regular, Menlo, Monaco, Consolas, &amp;quot;Liberation Mono&amp;quot;, &amp;quot;Courier New&amp;quot;, monospace; font-size: 14px;&quot; class=&quot;hljs-section&quot;&gt;&lt;font color=&quot;#1f6feb&quot;&gt;| + isSlotAvailable(): boolean |&lt;br style=&quot;border-color: rgb(0, 0, 0);&quot;&gt;+-------------------------------------+&lt;/font&gt;&lt;/span&gt;" style="text;whiteSpace=wrap;html=1;fontSize=15;fontColor=#FFFFC0;" parent="1" vertex="1">
                    <mxGeometry x="80" y="490" width="520" height="320" as="geometry"/>
                </mxCell>
                <mxCell id="2LE40x0W0pQmanTA2nhJ-18" value="Class SCHOOL_SYSTEM" style="swimlane;whiteSpace=wrap;html=1;labelBackgroundColor=none;strokeColor=#005700;strokeWidth=1;fontSize=15;fontColor=#ffffff;fillColor=#008a00;align=left;" parent="1" vertex="1">
                    <mxGeometry x="80" y="460" width="500" height="360" as="geometry"/>
                </mxCell>
                <mxCell id="2LE40x0W0pQmanTA2nhJ-21" value="Class STUDENT" style="swimlane;whiteSpace=wrap;html=1;labelBackgroundColor=none;strokeColor=#005700;strokeWidth=1;fontSize=15;fontColor=#ffffff;fillColor=#008a00;align=left;movable=1;resizable=1;rotatable=1;deletable=1;editable=1;connectable=1;" parent="1" vertex="1">
                    <mxGeometry x="835" y="110" width="530" height="280" as="geometry"/>
                </mxCell>
                <mxCell id="2LE40x0W0pQmanTA2nhJ-20" value="&lt;span style=&quot;box-sizing: border-box; color: rgb(139, 148, 158); font-family: SFMono-Regular, Menlo, Monaco, Consolas, &amp;quot;Liberation Mono&amp;quot;, &amp;quot;Courier New&amp;quot;, monospace; font-size: 14px; font-style: normal; font-variant-ligatures: normal; font-variant-caps: normal; font-weight: 400; letter-spacing: normal; orphans: 2; text-align: left; text-indent: 0px; text-transform: none; widows: 2; word-spacing: 0px; -webkit-text-stroke-width: 0px; text-decoration-thickness: initial; text-decoration-style: initial; text-decoration-color: initial;&quot; class=&quot;hljs-code&quot;&gt;&lt;br class=&quot;Apple-interchange-newline&quot;&gt;+-------------------------------------+&lt;/span&gt;&lt;span style=&quot;color: rgb(201, 209, 217); font-family: SFMono-Regular, Menlo, Monaco, Consolas, &amp;quot;Liberation Mono&amp;quot;, &amp;quot;Courier New&amp;quot;, monospace; font-size: 14px; font-style: normal; font-variant-ligatures: normal; font-variant-caps: normal; font-weight: 400; letter-spacing: normal; orphans: 2; text-align: left; text-indent: 0px; text-transform: none; widows: 2; word-spacing: 0px; -webkit-text-stroke-width: 0px; text-decoration-thickness: initial; text-decoration-style: initial; text-decoration-color: initial; float: none; display: inline !important;&quot;&gt;&lt;br&gt;&lt;/span&gt;&lt;span style=&quot;box-sizing: border-box; color: rgb(31, 111, 235); font-weight: 700; font-family: SFMono-Regular, Menlo, Monaco, Consolas, &amp;quot;Liberation Mono&amp;quot;, &amp;quot;Courier New&amp;quot;, monospace; font-size: 14px; font-style: normal; font-variant-ligatures: normal; font-variant-caps: normal; letter-spacing: normal; orphans: 2; text-align: left; text-indent: 0px; text-transform: none; widows: 2; word-spacing: 0px; -webkit-text-stroke-width: 0px; text-decoration-thickness: initial; text-decoration-style: initial; text-decoration-color: initial;&quot; class=&quot;hljs-section&quot;&gt;|              Student                |&lt;br&gt;+-------------------------------------+&lt;/span&gt;&lt;span style=&quot;color: rgb(201, 209, 217); font-family: SFMono-Regular, Menlo, Monaco, Consolas, &amp;quot;Liberation Mono&amp;quot;, &amp;quot;Courier New&amp;quot;, monospace; font-size: 14px; font-style: normal; font-variant-ligatures: normal; font-variant-caps: normal; font-weight: 400; letter-spacing: normal; orphans: 2; text-align: left; text-indent: 0px; text-transform: none; widows: 2; word-spacing: 0px; -webkit-text-stroke-width: 0px; text-decoration-thickness: initial; text-decoration-style: initial; text-decoration-color: initial; float: none; display: inline !important;&quot;&gt;&lt;br&gt;| - name: String                      |&lt;br&gt;| - academicResults: AcademicResult[]  |&lt;br&gt;&lt;/span&gt;&lt;span style=&quot;box-sizing: border-box; color: rgb(31, 111, 235); font-weight: 700; font-family: SFMono-Regular, Menlo, Monaco, Consolas, &amp;quot;Liberation Mono&amp;quot;, &amp;quot;Courier New&amp;quot;, monospace; font-size: 14px; font-style: normal; font-variant-ligatures: normal; font-variant-caps: normal; letter-spacing: normal; orphans: 2; text-align: left; text-indent: 0px; text-transform: none; widows: 2; word-spacing: 0px; -webkit-text-stroke-width: 0px; text-decoration-thickness: initial; text-decoration-style: initial; text-decoration-color: initial;&quot; class=&quot;hljs-section&quot;&gt;| - program: String                    |&lt;br&gt;+-------------------------------------+&lt;/span&gt;&lt;span style=&quot;color: rgb(201, 209, 217); font-family: SFMono-Regular, Menlo, Monaco, Consolas, &amp;quot;Liberation Mono&amp;quot;, &amp;quot;Courier New&amp;quot;, monospace; font-size: 14px; font-style: normal; font-variant-ligatures: normal; font-variant-caps: normal; font-weight: 400; letter-spacing: normal; orphans: 2; text-align: left; text-indent: 0px; text-transform: none; widows: 2; word-spacing: 0px; -webkit-text-stroke-width: 0px; text-decoration-thickness: initial; text-decoration-style: initial; text-decoration-color: initial; float: none; display: inline !important;&quot;&gt;&lt;br&gt;| + Student(name: String, program: String) |&lt;br&gt;| + getName(): String                  |&lt;br&gt;| + getAcademicResults(): AcademicResult[] |&lt;br&gt;| + getProgram(): String               |&lt;br&gt;&lt;/span&gt;&lt;span style=&quot;box-sizing: border-box; color: rgb(31, 111, 235); font-weight: 700; font-family: SFMono-Regular, Menlo, Monaco, Consolas, &amp;quot;Liberation Mono&amp;quot;, &amp;quot;Courier New&amp;quot;, monospace; font-size: 14px; font-style: normal; font-variant-ligatures: normal; font-variant-caps: normal; letter-spacing: normal; orphans: 2; text-align: left; text-indent: 0px; text-transform: none; widows: 2; word-spacing: 0px; -webkit-text-stroke-width: 0px; text-decoration-thickness: initial; text-decoration-style: initial; text-decoration-color: initial;&quot; class=&quot;hljs-section&quot;&gt;| + addAcademicResult(result: AcademicResult): void |&lt;br&gt;+-------------------------------------+&lt;/span&gt;" style="text;whiteSpace=wrap;html=1;fontSize=15;fontColor=#1F6FEB;" parent="2LE40x0W0pQmanTA2nhJ-21" vertex="1">
                    <mxGeometry width="480" height="290" as="geometry"/>
                </mxCell>
                <mxCell id="2LE40x0W0pQmanTA2nhJ-23" value="" style="swimlane;whiteSpace=wrap;html=1;labelBackgroundColor=none;strokeColor=#005700;strokeWidth=1;fontSize=15;fontColor=#ffffff;fillColor=#008a00;align=left;movable=1;resizable=1;rotatable=1;deletable=1;editable=1;connectable=1;" parent="1" vertex="1">
                    <mxGeometry x="820" y="460" width="530" height="280" as="geometry"/>
                </mxCell>
                <mxCell id="2LE40x0W0pQmanTA2nhJ-25" value="&lt;span style=&quot;border-color: rgb(0, 0, 0); font-style: normal; font-variant-ligatures: normal; font-variant-caps: normal; letter-spacing: normal; orphans: 2; text-align: left; text-indent: 0px; text-transform: none; widows: 2; word-spacing: 0px; -webkit-text-stroke-width: 0px; text-decoration-thickness: initial; text-decoration-style: initial; text-decoration-color: initial; box-sizing: border-box; color: rgb(139, 148, 158); font-family: SFMono-Regular, Menlo, Monaco, Consolas, &amp;quot;Liberation Mono&amp;quot;, &amp;quot;Courier New&amp;quot;, monospace; font-size: 14px; font-weight: 400;&quot; class=&quot;hljs-code&quot;&gt;&lt;br style=&quot;border-color: rgb(0, 0, 0);&quot; class=&quot;Apple-interchange-newline&quot;&gt;+-------------------------------------+&lt;/span&gt;&lt;span style=&quot;border-color: rgb(0, 0, 0); font-style: normal; font-variant-ligatures: normal; font-variant-caps: normal; letter-spacing: normal; orphans: 2; text-align: left; text-indent: 0px; text-transform: none; widows: 2; word-spacing: 0px; -webkit-text-stroke-width: 0px; text-decoration-thickness: initial; text-decoration-style: initial; text-decoration-color: initial; color: rgb(201, 209, 217); font-family: SFMono-Regular, Menlo, Monaco, Consolas, &amp;quot;Liberation Mono&amp;quot;, &amp;quot;Courier New&amp;quot;, monospace; font-size: 14px; font-weight: 400; float: none; display: inline !important;&quot;&gt;&lt;br style=&quot;border-color: rgb(0, 0, 0);&quot;&gt;&lt;/span&gt;&lt;span style=&quot;border-color: rgb(0, 0, 0); font-style: normal; font-variant-ligatures: normal; font-variant-caps: normal; font-weight: 700; letter-spacing: normal; orphans: 2; text-align: left; text-indent: 0px; text-transform: none; widows: 2; word-spacing: 0px; -webkit-text-stroke-width: 0px; text-decoration-thickness: initial; text-decoration-style: initial; text-decoration-color: initial; box-sizing: border-box; color: rgb(31, 111, 235); font-family: SFMono-Regular, Menlo, Monaco, Consolas, &amp;quot;Liberation Mono&amp;quot;, &amp;quot;Courier New&amp;quot;, monospace; font-size: 14px;&quot; class=&quot;hljs-section&quot;&gt;| AcademicResult |&lt;br style=&quot;border-color: rgb(0, 0, 0);&quot;&gt;+-------------------------------------+&lt;/span&gt;&lt;span style=&quot;border-color: rgb(0, 0, 0); font-style: normal; font-variant-ligatures: normal; font-variant-caps: normal; letter-spacing: normal; orphans: 2; text-align: left; text-indent: 0px; text-transform: none; widows: 2; word-spacing: 0px; -webkit-text-stroke-width: 0px; text-decoration-thickness: initial; text-decoration-style: initial; text-decoration-color: initial; color: rgb(201, 209, 217); font-family: SFMono-Regular, Menlo, Monaco, Consolas, &amp;quot;Liberation Mono&amp;quot;, &amp;quot;Courier New&amp;quot;, monospace; font-size: 14px; font-weight: 400; float: none; display: inline !important;&quot;&gt;&lt;br style=&quot;border-color: rgb(0, 0, 0);&quot;&gt;| - subject: String |&lt;br style=&quot;border-color: rgb(0, 0, 0);&quot;&gt;&lt;/span&gt;&lt;span style=&quot;border-color: rgb(0, 0, 0); font-style: normal; font-variant-ligatures: normal; font-variant-caps: normal; font-weight: 700; letter-spacing: normal; orphans: 2; text-align: left; text-indent: 0px; text-transform: none; widows: 2; word-spacing: 0px; -webkit-text-stroke-width: 0px; text-decoration-thickness: initial; text-decoration-style: initial; text-decoration-color: initial; box-sizing: border-box; color: rgb(31, 111, 235); font-family: SFMono-Regular, Menlo, Monaco, Consolas, &amp;quot;Liberation Mono&amp;quot;, &amp;quot;Courier New&amp;quot;, monospace; font-size: 14px;&quot; class=&quot;hljs-section&quot;&gt;| - grade: String |&lt;br style=&quot;border-color: rgb(0, 0, 0);&quot;&gt;+-------------------------------------+&lt;/span&gt;&lt;span style=&quot;border-color: rgb(0, 0, 0); font-style: normal; font-variant-ligatures: normal; font-variant-caps: normal; letter-spacing: normal; orphans: 2; text-align: left; text-indent: 0px; text-transform: none; widows: 2; word-spacing: 0px; -webkit-text-stroke-width: 0px; text-decoration-thickness: initial; text-decoration-style: initial; text-decoration-color: initial; color: rgb(201, 209, 217); font-family: SFMono-Regular, Menlo, Monaco, Consolas, &amp;quot;Liberation Mono&amp;quot;, &amp;quot;Courier New&amp;quot;, monospace; font-size: 14px; font-weight: 400; float: none; display: inline !important;&quot;&gt;&lt;br style=&quot;border-color: rgb(0, 0, 0);&quot;&gt;| + AcademicResult(subject: String, grade: String) |&lt;br style=&quot;border-color: rgb(0, 0, 0);&quot;&gt;| + getSubject(): String |&lt;br style=&quot;border-color: rgb(0, 0, 0);&quot;&gt;&lt;/span&gt;&lt;span style=&quot;border-color: rgb(0, 0, 0); font-style: normal; font-variant-ligatures: normal; font-variant-caps: normal; font-weight: 700; letter-spacing: normal; orphans: 2; text-align: left; text-indent: 0px; text-transform: none; widows: 2; word-spacing: 0px; -webkit-text-stroke-width: 0px; text-decoration-thickness: initial; text-decoration-style: initial; text-decoration-color: initial; box-sizing: border-box; color: rgb(31, 111, 235); font-family: SFMono-Regular, Menlo, Monaco, Consolas, &amp;quot;Liberation Mono&amp;quot;, &amp;quot;Courier New&amp;quot;, monospace; font-size: 14px;&quot; class=&quot;hljs-section&quot;&gt;| + getGrade(): String |&lt;br style=&quot;border-color: rgb(0, 0, 0);&quot;&gt;+-------------------------------------+&lt;/span&gt;&lt;span style=&quot;border-color: rgb(0, 0, 0); font-style: normal; font-variant-ligatures: normal; font-variant-caps: normal; letter-spacing: normal; orphans: 2; text-align: left; text-indent: 0px; text-transform: none; widows: 2; word-spacing: 0px; -webkit-text-stroke-width: 0px; text-decoration-thickness: initial; text-decoration-style: initial; text-decoration-color: initial; color: rgb(201, 209, 217); font-family: SFMono-Regular, Menlo, Monaco, Consolas, &amp;quot;Liberation Mono&amp;quot;, &amp;quot;Courier New&amp;quot;, monospace; font-size: 14px; font-weight: 400; background-color: rgb(33, 34, 36); float: none; display: inline !important;&quot;&gt;&lt;br style=&quot;border-color: rgb(0, 0, 0);&quot;&gt;&lt;/span&gt;" style="text;whiteSpace=wrap;html=1;fontSize=15;fontColor=#1F6FEB;" parent="2LE40x0W0pQmanTA2nhJ-23" vertex="1">
                    <mxGeometry x="3" y="26" width="470" height="230" as="geometry"/>
                </mxCell>
            </root>
        </mxGraphModel>
    </diagram>
</mxfile>